<?xml version="1.0" encoding="UTF-8"?>
<svg xmlns="http://www.w3.org/2000/svg" viewBox="0 0 125 125">
  <defs>
    <style>
      .cls-1 {
        fill: #fff;
      }

      .cls-2 {
        fill: #f2f2f2;
      }
    </style>
  </defs>
  <g id="Layer_1" data-name="Layer 1"/>
  <g id="Layer_2" data-name="Layer 2">
    <g>
      <circle cx="62.5" cy="62.5" r="62.5"/>
      <circle class="cls-2" cx="69" cy="24" r="6"/>
      <path class="cls-1" d="M45.97,26.82c-7.52,3.38-13.99,9.52-18.25,16.53-5.3,8.7-7.01,19.18-4.99,29.13,1.78,8.76,6.87,17.19,13.84,22.79,7.74,6.21,17.12,9.4,27.09,8.88,5.72-.29,11.26-1.68,16.34-4.35s9.18-6.69,12.55-11.3c1.86-2.54,.51-6.8-2.15-8.21-3.12-1.65-6.23-.56-8.21,2.15-.02,.03-.44,.51-.45,.61,.02-.41,.75-.94,.25-.33-.31,.38-.63,.76-.96,1.12-.72,.81-1.48,1.58-2.29,2.31-.35,.32-.71,.63-1.07,.93-.17,.14-.4,.28-.55,.44,.92-.95,.74-.56,.37-.3-.86,.61-1.73,1.19-2.64,1.71-.81,.46-1.64,.87-2.48,1.27-.9,.42,.39-.16,.47-.19-.22,.07-.43,.18-.65,.26-.55,.21-1.1,.4-1.65,.58-.9,.29-1.81,.53-2.73,.74-.47,.1-.93,.2-1.4,.28-.24,.04-.47,.08-.71,.12-1.08,.18,1.11-.12,.34-.04-2.12,.21-4.22,.31-6.35,.2-.52-.03-1.03-.06-1.54-.1-.22-.02-1.93-.21-.79-.07s-.53-.1-.75-.14c-.57-.11-1.13-.23-1.69-.37-.89-.22-1.77-.48-2.63-.77-.43-.15-.86-.3-1.28-.47-.23-.09-.96-.4-.07-.02,.95,.41,0,0-.22-.11-1.74-.8-3.41-1.75-4.98-2.85-.36-.25-.71-.57-1.09-.79,1.46,.84,.33,.25-.11-.11-.78-.65-1.52-1.33-2.24-2.05-.64-.64-1.25-1.3-1.83-1.98-.29-.33-.54-.74-.86-1.04,.98,.94,.59,.78,.32,.41-.2-.27-.4-.54-.59-.82-1.07-1.52-2.02-3.13-2.84-4.81-.22-.46-.41-.94-.64-1.39,.04,.07,.56,1.41,.21,.49-.08-.21-.17-.42-.25-.63-.34-.9-.64-1.82-.91-2.75-.25-.88-.46-1.77-.64-2.66-.09-.45-.17-.9-.24-1.35-.08-.53,.07-1.16,.05,.4,0-.28-.06-.58-.09-.86-.18-1.95-.19-3.92-.02-5.87,.02-.27,.05-.53,.08-.8,.09-1.06-.04,.28-.07,.41,.11-.51,.16-1.03,.26-1.54,.21-1.12,.48-2.23,.8-3.33,.28-.95,.62-1.87,.96-2.8s-.14,.33-.19,.43c.11-.21,.19-.44,.29-.66,.25-.54,.51-1.08,.78-1.61,.51-.98,1.07-1.94,1.67-2.88,.28-.43,.57-.86,.86-1.28,.13-.19,.26-.37,.4-.55,.29-.39,1.02-1.01-.12,.14,1.46-1.47,2.68-3.12,4.23-4.53,.69-.63,1.43-1.19,2.13-1.81-1.49,1.3-.19,.16,.23-.14,.36-.25,.72-.5,1.09-.74,1.48-.98,3.04-1.84,4.66-2.56,2.87-1.29,3.78-5.69,2.15-8.21-1.91-2.97-5.14-3.53-8.21-2.15h0Z"/>
    </g>
  </g>
</svg>